<svg width="50" height="49" viewBox="0 0 50 49" fill="none" xmlns="http://www.w3.org/2000/svg">
<mask id="mask0_260_23" style="mask-type:alpha" maskUnits="userSpaceOnUse" x="0" y="0" width="50" height="49">
<rect x="0.793213" y="0.459717" width="48.4137" height="48.4137" fill="#D9D9D9"/>
</mask>
<g mask="url(#mask0_260_23)">
<path d="M12.8966 34.7527C12.325 34.7527 11.8459 34.5594 11.4593 34.1727C11.0727 33.7861 10.8793 33.307 10.8793 32.7355V22.5988C10.8793 22.0273 11.0727 21.5566 11.4593 21.1868C11.8459 20.8169 12.325 20.632 12.8966 20.632C13.4681 20.632 13.9472 20.8253 14.3339 21.212C14.7205 21.5986 14.9138 22.0777 14.9138 22.6493V32.7859C14.9138 33.3574 14.7205 33.8281 14.3339 34.198C13.9472 34.5678 13.4681 34.7527 12.8966 34.7527ZM25 34.7527C24.4285 34.7527 23.9494 34.5594 23.5627 34.1727C23.1761 33.7861 22.9828 33.307 22.9828 32.7355V22.5988C22.9828 22.0273 23.1761 21.5566 23.5627 21.1868C23.9494 20.8169 24.4285 20.632 25 20.632C25.5716 20.632 26.0507 20.8253 26.4373 21.212C26.8239 21.5986 27.0172 22.0777 27.0172 22.6493V32.7859C27.0172 33.3574 26.8239 33.8281 26.4373 34.198C26.0507 34.5678 25.5716 34.7527 25 34.7527ZM6.79444 42.8216C6.22289 42.8216 5.7522 42.6283 5.38238 42.2417C5.01255 41.855 4.82764 41.376 4.82764 40.8044C4.82764 40.2329 5.02096 39.7538 5.40759 39.3671C5.79423 38.9805 6.27332 38.7872 6.84487 38.7872H43.2056C43.7771 38.7872 44.2478 38.9805 44.6176 39.3671C44.9875 39.7538 45.1724 40.2329 45.1724 40.8044C45.1724 41.376 44.9791 41.855 44.5924 42.2417C44.2058 42.6283 43.7267 42.8216 43.1551 42.8216H6.79444ZM37.1034 34.7527C36.5319 34.7527 36.0528 34.5594 35.6662 34.1727C35.2795 33.7861 35.0862 33.307 35.0862 32.7355V22.5988C35.0862 22.0273 35.2795 21.5566 35.6662 21.1868C36.0528 20.8169 36.5319 20.632 37.1034 20.632C37.675 20.632 38.1541 20.8253 38.5407 21.212C38.9273 21.5986 39.1207 22.0777 39.1207 22.6493V32.7859C39.1207 33.3574 38.9273 33.8281 38.5407 34.198C38.1541 34.5678 37.675 34.7527 37.1034 34.7527ZM26.8155 3.38465L43.8107 11.857C44.2478 12.0924 44.584 12.4202 44.8194 12.8404C45.0547 13.2607 45.1724 13.723 45.1724 14.2273C45.1724 14.8997 44.9286 15.4629 44.4411 15.9167C43.9536 16.3706 43.3737 16.5976 42.7013 16.5976H7.34918C6.67677 16.5976 6.08841 16.3706 5.5841 15.9167C5.07979 15.4629 4.82764 14.8997 4.82764 14.2273C4.82764 13.7566 4.9369 13.3027 5.15544 12.8657C5.37397 12.4286 5.71858 12.1092 6.18927 11.9075L23.1845 3.38465C23.756 3.11568 24.3612 2.9812 25 2.9812C25.6388 2.9812 26.244 3.11568 26.8155 3.38465Z" fill="white"/>
</g>
</svg>
