<svg width="25" height="24" viewBox="0 0 25 24" fill="none" xmlns="http://www.w3.org/2000/svg">
<mask id="mask0_233_238" style="mask-type:alpha" maskUnits="userSpaceOnUse" x="0" y="0" width="25" height="24">
<rect x="24.5" y="24" width="24" height="24" transform="rotate(-180 24.5 24)" fill="#D9D9D9"/>
</mask>
<g mask="url(#mask0_233_238)">
<path d="M9.67646 11.75L17.2092 19.2827C17.4079 19.4814 17.5047 19.718 17.4996 19.9923C17.4944 20.2667 17.3925 20.5032 17.1938 20.7019C16.9951 20.9006 16.7585 21 16.4842 21C16.2098 21 15.9733 20.9006 15.7746 20.7019L8.11881 13.0308C7.93805 12.85 7.80407 12.6474 7.71689 12.4231C7.62972 12.1987 7.58614 11.9744 7.58614 11.75C7.58614 11.5257 7.62972 11.3013 7.71689 11.0769C7.80407 10.8526 7.93805 10.65 8.11881 10.4693L15.79 2.79812C15.9887 2.59941 16.2227 2.50261 16.4919 2.50772C16.7611 2.51286 16.9951 2.61478 17.1938 2.8135C17.3925 3.01222 17.4919 3.24875 17.4919 3.5231C17.4919 3.79745 17.3925 4.03398 17.1938 4.2327L9.67646 11.75Z" fill="#091424"/>
</g>
</svg>
