<svg width="64" height="64" viewBox="0 0 64 64" fill="none" xmlns="http://www.w3.org/2000/svg">
<mask id="mask0_148_395" style="mask-type:alpha" maskUnits="userSpaceOnUse" x="0" y="0" width="64" height="64">
<rect width="64" height="64" fill="#D9D9D9"/>
</mask>
<g mask="url(#mask0_148_395)">
<path d="M18.6667 28.8V18.6667H13.3333V21.3333C13.3333 23.0222 13.8222 24.5444 14.8 25.9C15.7778 27.2556 17.0667 28.2222 18.6667 28.8ZM45.3333 28.8C46.9333 28.2222 48.2222 27.2556 49.2 25.9C50.1778 24.5444 50.6667 23.0222 50.6667 21.3333V18.6667H45.3333V28.8ZM29.3333 50.6667V42.4C27.1556 41.9111 25.2111 40.9889 23.5 39.6333C21.7889 38.2778 20.5333 36.5778 19.7333 34.5333C16.4 34.1333 13.6111 32.6778 11.3667 30.1667C9.12222 27.6556 8 24.7111 8 21.3333V18.6667C8 17.2 8.52222 15.9444 9.56667 14.9C10.6111 13.8556 11.8667 13.3333 13.3333 13.3333H18.6667C18.6667 11.8667 19.1889 10.6111 20.2333 9.56667C21.2778 8.52222 22.5333 8 24 8H40C41.4667 8 42.7222 8.52222 43.7667 9.56667C44.8111 10.6111 45.3333 11.8667 45.3333 13.3333H50.6667C52.1333 13.3333 53.3889 13.8556 54.4333 14.9C55.4778 15.9444 56 17.2 56 18.6667V21.3333C56 24.7111 54.8778 27.6556 52.6333 30.1667C50.3889 32.6778 47.6 34.1333 44.2667 34.5333C43.4667 36.5778 42.2111 38.2778 40.5 39.6333C38.7889 40.9889 36.8444 41.9111 34.6667 42.4V50.6667H42.6667C43.4222 50.6667 44.0556 50.9222 44.5667 51.4333C45.0778 51.9444 45.3333 52.5778 45.3333 53.3333C45.3333 54.0889 45.0778 54.7222 44.5667 55.2333C44.0556 55.7444 43.4222 56 42.6667 56H21.3333C20.5778 56 19.9444 55.7444 19.4333 55.2333C18.9222 54.7222 18.6667 54.0889 18.6667 53.3333C18.6667 52.5778 18.9222 51.9444 19.4333 51.4333C19.9444 50.9222 20.5778 50.6667 21.3333 50.6667H29.3333Z" fill="#091424"/>
</g>
</svg>
