<svg width="50" height="49" viewBox="0 0 50 49" fill="none" xmlns="http://www.w3.org/2000/svg">
<mask id="mask0_260_36" style="mask-type:alpha" maskUnits="userSpaceOnUse" x="0" y="0" width="50" height="49">
<rect x="0.793213" y="0.126465" width="48.4137" height="48.4137" fill="#D9D9D9"/>
</mask>
<g mask="url(#mask0_260_36)">
<path d="M23.1846 30.385H26.8156C27.1182 30.385 27.3787 30.2589 27.5973 30.0068C27.8158 29.7546 27.8915 29.4772 27.8242 29.1747L26.866 23.8794C27.5384 23.5432 28.068 23.0557 28.4546 22.4169C28.8412 21.7781 29.0346 21.0721 29.0346 20.2988C29.0346 19.1893 28.6395 18.2396 27.8494 17.4495C27.0593 16.6594 26.1096 16.2643 25.0001 16.2643C23.8906 16.2643 22.9408 16.6594 22.1507 17.4495C21.3607 18.2396 20.9656 19.1893 20.9656 20.2988C20.9656 21.0721 21.1589 21.7781 21.5456 22.4169C21.9322 23.0557 22.4617 23.5432 23.1341 23.8794L22.1759 29.1747C22.1087 29.4772 22.1844 29.7546 22.4029 30.0068C22.6214 30.2589 22.882 30.385 23.1846 30.385ZM25.0001 44.3039C24.7647 44.3039 24.5462 44.2871 24.3445 44.2535C24.1428 44.2199 23.941 44.1695 23.7393 44.1022C19.2005 42.5893 15.5863 39.7904 12.8967 35.7055C10.207 31.6206 8.86218 27.2247 8.86218 22.5178V12.9863C8.86218 12.1458 9.10593 11.3893 9.59343 10.7169C10.0809 10.0445 10.7113 9.55703 11.4846 9.25444L23.588 4.71566C24.0587 4.54755 24.5294 4.4635 25.0001 4.4635C25.4708 4.4635 25.9415 4.54755 26.4121 4.71566L38.5156 9.25444C39.2888 9.55703 39.9192 10.0445 40.4067 10.7169C40.8942 11.3893 41.138 12.1458 41.138 12.9863V22.5178C41.138 27.2247 39.7932 31.6206 37.1035 35.7055C34.4139 39.7904 30.7996 42.5893 26.2609 44.1022C26.0591 44.1695 25.8574 44.2199 25.6557 44.2535C25.454 44.2871 25.2354 44.3039 25.0001 44.3039Z" fill="white"/>
</g>
</svg>
