<svg width="64" height="64" viewBox="0 0 64 64" fill="none" xmlns="http://www.w3.org/2000/svg">
<mask id="mask0_39_1580" style="mask-type:alpha" maskUnits="userSpaceOnUse" x="0" y="0" width="64" height="64">
<rect width="64" height="64" fill="#D9D9D9"/>
</mask>
<g mask="url(#mask0_39_1580)">
<path d="M59.1334 28.0667C59.6223 28.6 59.8667 29.2333 59.8667 29.9667C59.8667 30.7 59.6223 31.3333 59.1334 31.8667L49.6667 41.2667C49.1779 41.8 48.5556 42.0667 47.8001 42.0667C47.0445 42.0667 46.4223 41.8 45.9334 41.2667L42.1334 37.5333C41.6001 37 41.3334 36.3667 41.3334 35.6333C41.3334 34.9 41.6001 34.2667 42.1334 33.7333C42.6667 33.2444 43.3001 33 44.0334 33C44.7667 33 45.4001 33.2444 45.9334 33.7333L47.8001 35.6L55.3334 28.0667C55.8667 27.5778 56.5001 27.3333 57.2334 27.3333C57.9667 27.3333 58.6001 27.5778 59.1334 28.0667ZM27.5334 54.4667L20.8667 48.4C17.6667 45.5111 14.9223 42.9333 12.6334 40.6667C10.3445 38.4 8.45564 36.2667 6.96675 34.2667C5.47786 32.2667 4.38897 30.3333 3.70008 28.4667C3.01119 26.6 2.66675 24.6444 2.66675 22.6C2.66675 18.4222 4.06675 14.9444 6.86675 12.1667C9.66675 9.38889 13.1556 8 17.3334 8C19.6445 8 21.8445 8.47778 23.9334 9.43333C26.0223 10.3889 27.8223 11.7556 29.3334 13.5333C30.8445 11.7556 32.6445 10.3889 34.7334 9.43333C36.8223 8.47778 39.0223 8 41.3334 8C45.1112 8 48.2779 9.14444 50.8334 11.4333C53.389 13.7222 54.9779 16.4 55.6001 19.4667C54.7112 19.1111 53.7779 18.8889 52.8001 18.8C51.8223 18.7111 50.8223 18.6667 49.8001 18.6667C46.0223 18.6667 42.5556 20.1889 39.4001 23.2333C36.2445 26.2778 34.6667 30.0889 34.6667 34.6667C34.6667 36.8 35.1334 38.9667 36.0667 41.1667C37.0001 43.3667 38.3112 45.1556 40.0001 46.5333C39.1556 47.2889 38.0556 48.2556 36.7001 49.4333C35.3445 50.6111 34.1779 51.6444 33.2001 52.5333L31.0667 54.4667C30.5779 54.9111 29.989 55.1333 29.3001 55.1333C28.6112 55.1333 28.0223 54.9111 27.5334 54.4667Z" fill="white"/>
</g>
</svg>
