<svg width="50" height="49" viewBox="0 0 50 49" fill="none" xmlns="http://www.w3.org/2000/svg">
<mask id="mask0_260_27" style="mask-type:alpha" maskUnits="userSpaceOnUse" x="0" y="0" width="50" height="49">
<rect x="0.795044" y="0.46167" width="48.41" height="48.41" fill="#D9D9D9"/>
</mask>
<g mask="url(#mask0_260_27)">
<path d="M12.8976 44.8375C11.7882 44.8375 10.8385 44.4425 10.0484 43.6525C9.25842 42.8624 8.8634 41.9127 8.8634 40.8033V20.6325C8.8634 19.5231 9.25842 18.5734 10.0484 17.7834C10.8385 16.9934 11.7882 16.5983 12.8976 16.5983H31.0513V12.5642C31.0513 10.8833 30.463 9.45451 29.2864 8.27787C28.1097 7.10124 26.681 6.51293 25.0001 6.51293C23.5881 6.51293 22.3526 6.94156 21.2937 7.79882C20.2347 8.65608 19.5203 9.72345 19.1505 11.0009C19.0161 11.4716 18.7387 11.8498 18.3185 12.1355C17.8983 12.4213 17.436 12.5642 16.9317 12.5642C16.3602 12.5642 15.8812 12.3793 15.4946 12.0095C15.108 11.6397 14.9651 11.2026 15.0659 10.6984C15.4357 8.41235 16.5535 6.4709 18.4193 4.87405C20.2851 3.27719 22.4787 2.47876 25.0001 2.47876C27.7904 2.47876 30.1688 3.46209 32.1355 5.42874C34.1022 7.3954 35.0855 9.77388 35.0855 12.5642V16.5983H37.1026C38.212 16.5983 39.1617 16.9934 39.9517 17.7834C40.7417 18.5734 41.1367 19.5231 41.1367 20.6325V40.8033C41.1367 41.9127 40.7417 42.8624 39.9517 43.6525C39.1617 44.4425 38.212 44.8375 37.1026 44.8375H12.8976ZM25.0001 34.7521C26.1095 34.7521 27.0592 34.3571 27.8492 33.5671C28.6392 32.777 29.0342 31.8273 29.0342 30.7179C29.0342 29.6085 28.6392 28.6588 27.8492 27.8688C27.0592 27.0788 26.1095 26.6838 25.0001 26.6838C23.8907 26.6838 22.941 27.0788 22.1509 27.8688C21.3609 28.6588 20.9659 29.6085 20.9659 30.7179C20.9659 31.8273 21.3609 32.777 22.1509 33.5671C22.941 34.3571 23.8907 34.7521 25.0001 34.7521Z" fill="white"/>
</g>
</svg>
