<svg width="24" height="24" viewBox="0 0 24 24" fill="none" xmlns="http://www.w3.org/2000/svg">
<mask id="mask0_148_283" style="mask-type:alpha" maskUnits="userSpaceOnUse" x="0" y="0" width="24" height="24">
<rect width="24" height="24" fill="#D9D9D9"/>
</mask>
<g mask="url(#mask0_148_283)">
<path d="M14.15 21.2C13.7833 21.5667 13.3375 21.75 12.8125 21.75C12.2875 21.75 11.8417 21.5667 11.475 21.2L2.825 12.525C2.6493 12.3529 2.50955 12.1494 2.40575 11.9146C2.30192 11.6799 2.25 11.4333 2.25 11.175V4.125C2.25 3.60937 2.43359 3.16796 2.80077 2.80078C3.16796 2.43359 3.60937 2.25 4.125 2.25H11.175C11.4372 2.25 11.684 2.29792 11.9154 2.39375C12.1468 2.48958 12.35 2.625 12.525 2.8L21.2 11.4875C21.5667 11.8542 21.75 12.2979 21.75 12.8188C21.75 13.3396 21.5667 13.7833 21.2 14.15L14.15 21.2ZM6.5875 8C6.98333 8 7.31979 7.86146 7.59688 7.58437C7.87396 7.30729 8.0125 6.97083 8.0125 6.575C8.0125 6.17917 7.87396 5.84271 7.59688 5.56562C7.31979 5.28854 6.98333 5.15 6.5875 5.15C6.19167 5.15 5.85521 5.28854 5.57812 5.56562C5.30104 5.84271 5.1625 6.17917 5.1625 6.575C5.1625 6.97083 5.30104 7.30729 5.57812 7.58437C5.85521 7.86146 6.19167 8 6.5875 8ZM13.6625 16.7125L16.4 13.95C16.5833 13.7667 16.725 13.5542 16.825 13.3125C16.925 13.0708 16.975 12.8167 16.975 12.55C16.975 12.0041 16.7823 11.5384 16.3969 11.1531C16.0116 10.7677 15.5459 10.575 15 10.575C14.689 10.575 14.3821 10.6667 14.0792 10.85C13.7764 11.0333 13.418 11.3417 13.004 11.775C12.5263 11.3167 12.1445 11.0021 11.8584 10.8313C11.5724 10.6604 11.2779 10.575 10.975 10.575C10.4291 10.575 9.96342 10.7677 9.57805 11.1531C9.19268 11.5384 9 12.0041 9 12.55C9 12.8167 9.05 13.0708 9.15 13.3125C9.25 13.5542 9.39055 13.7656 9.57165 13.9467L12.3375 16.7125C12.5261 16.9042 12.7462 17 12.9977 17C13.2492 17 13.4708 16.9042 13.6625 16.7125Z" fill="white"/>
</g>
</svg>
