<svg width="24" height="24" viewBox="0 0 24 24" fill="none" xmlns="http://www.w3.org/2000/svg">
<mask id="mask0_148_275" style="mask-type:alpha" maskUnits="userSpaceOnUse" x="0" y="0" width="24" height="24">
<rect width="24" height="24" fill="#D9D9D9"/>
</mask>
<g mask="url(#mask0_148_275)">
<path d="M12 20.0875C11.775 20.0875 11.5521 20.0479 11.3313 19.9687C11.1104 19.8896 10.9125 19.7666 10.7375 19.6L9.1625 18.1625C7.3625 16.5208 5.76042 14.9125 4.35625 13.3375C2.95208 11.7625 2.25 10.0416 2.25 8.17498C2.25 6.65831 2.75833 5.39164 3.775 4.37498C4.79167 3.35831 6.05833 2.84998 7.575 2.84998C8.43333 2.84998 9.24792 3.03539 10.0188 3.40623C10.7896 3.77706 11.45 4.29998 12 4.97498C12.5667 4.29998 13.2313 3.77706 13.9938 3.40623C14.7563 3.03539 15.5667 2.84998 16.425 2.84998C17.9417 2.84998 19.2083 3.35831 20.225 4.37498C21.2417 5.39164 21.75 6.65831 21.75 8.17498C21.75 10.0416 21.05 11.7646 19.65 13.3437C18.25 14.9229 16.6458 16.5291 14.8375 18.1625L13.2625 19.6C13.0875 19.7666 12.8896 19.8896 12.6687 19.9687C12.4479 20.0479 12.225 20.0875 12 20.0875Z" fill="white"/>
</g>
</svg>
