<svg width="64" height="64" viewBox="0 0 64 64" fill="none" xmlns="http://www.w3.org/2000/svg">
<mask id="mask0_148_412" style="mask-type:alpha" maskUnits="userSpaceOnUse" x="0" y="0" width="64" height="64">
<rect width="64" height="64" fill="#D9D9D9"/>
</mask>
<g mask="url(#mask0_148_412)">
<path d="M16.1329 56.1333C15.644 56.5333 15.1217 56.5556 14.5662 56.2C14.0106 55.8444 13.844 55.3556 14.0662 54.7333L19.0662 38.4L6.06619 29.0667C5.53286 28.7111 5.36619 28.2222 5.56619 27.6C5.76619 26.9778 6.1773 26.6667 6.79953 26.6667H22.9329L28.0662 9.6C28.1551 9.24444 28.3217 9 28.5662 8.86667C28.8106 8.73333 29.0662 8.66667 29.3329 8.66667C29.5995 8.66667 29.8551 8.73333 30.0995 8.86667C30.344 9 30.5106 9.24444 30.5995 9.6L35.7329 26.6667H51.8662C52.4884 26.6667 52.8995 26.9778 53.0995 27.6C53.2995 28.2222 53.1329 28.7111 52.5995 29.0667L39.5995 38.4L44.5995 54.7333C44.8217 55.3556 44.6551 55.8444 44.0995 56.2C43.544 56.5556 43.0217 56.5333 42.5329 56.1333L29.3329 46.1333L16.1329 56.1333ZM53.5995 56.1333L49.6662 53.1333L45.7329 40.5333L53.9995 34.6667H58.9995C59.6217 34.6667 60.044 34.9778 60.2662 35.6C60.4884 36.2222 60.3329 36.7111 59.7995 37.0667L51.9995 42.6667L55.7329 54.6667C55.9551 55.2889 55.7773 55.7889 55.1995 56.1667C54.6217 56.5444 54.0884 56.5333 53.5995 56.1333ZM39.7329 21.3333L37.7329 14.5333L39.1995 9.6C39.2884 9.24444 39.4551 8.98889 39.6995 8.83333C39.944 8.67778 40.1995 8.6 40.4662 8.6C40.7329 8.6 40.9884 8.68889 41.2329 8.86667C41.4773 9.04444 41.644 9.28889 41.7329 9.6L45.3329 21.3333H39.7329Z" fill="#091424"/>
</g>
</svg>
