<svg width="25" height="24" viewBox="0 0 25 24" fill="none" xmlns="http://www.w3.org/2000/svg">
<mask id="mask0_148_266" style="mask-type:alpha" maskUnits="userSpaceOnUse" x="0" y="0" width="25" height="24">
<rect x="0.5" width="24" height="24" fill="#D9D9D9"/>
</mask>
<g mask="url(#mask0_148_266)">
<path d="M15.5 19.9375C13.2833 19.9375 11.4063 19.1688 9.86875 17.6313C8.33125 16.0938 7.5625 14.2167 7.5625 12C7.5625 9.8 8.33125 7.92708 9.86875 6.38125C11.4063 4.83542 13.2833 4.0625 15.5 4.0625C17.7 4.0625 19.5729 4.83542 21.1187 6.38125C22.6646 7.92708 23.4375 9.8 23.4375 12C23.4375 14.2167 22.6646 16.0938 21.1187 17.6313C19.5729 19.1688 17.7 19.9375 15.5 19.9375ZM16.4375 11.6375V9C16.4375 8.74167 16.3458 8.52083 16.1625 8.3375C15.9792 8.15417 15.7583 8.0625 15.5 8.0625C15.2417 8.0625 15.0208 8.15417 14.8375 8.3375C14.6542 8.52083 14.5625 8.74167 14.5625 9V12.025C14.5625 12.15 14.5875 12.2688 14.6375 12.3813C14.6875 12.4938 14.7542 12.5917 14.8375 12.675L17.1125 14.9625C17.3042 15.1542 17.5271 15.25 17.7812 15.25C18.0354 15.25 18.2583 15.1542 18.45 14.9625C18.6333 14.7708 18.725 14.5479 18.725 14.2937C18.725 14.0396 18.6292 13.8167 18.4375 13.625L16.4375 11.6375ZM3.5 8.9375C3.24167 8.9375 3.02083 8.84583 2.8375 8.6625C2.65417 8.47917 2.5625 8.25833 2.5625 8C2.5625 7.74167 2.65417 7.52083 2.8375 7.3375C3.02083 7.15417 3.24167 7.0625 3.5 7.0625H5.5C5.75833 7.0625 5.97917 7.15417 6.1625 7.3375C6.34583 7.52083 6.4375 7.74167 6.4375 8C6.4375 8.25833 6.34583 8.47917 6.1625 8.6625C5.97917 8.84583 5.75833 8.9375 5.5 8.9375H3.5ZM2.5 12.9375C2.24167 12.9375 2.02083 12.8458 1.8375 12.6625C1.65417 12.4792 1.5625 12.2583 1.5625 12C1.5625 11.7417 1.65417 11.5208 1.8375 11.3375C2.02083 11.1542 2.24167 11.0625 2.5 11.0625H5.5C5.75833 11.0625 5.97917 11.1542 6.1625 11.3375C6.34583 11.5208 6.4375 11.7417 6.4375 12C6.4375 12.2583 6.34583 12.4792 6.1625 12.6625C5.97917 12.8458 5.75833 12.9375 5.5 12.9375H2.5ZM3.5 16.9375C3.24167 16.9375 3.02083 16.8458 2.8375 16.6625C2.65417 16.4792 2.5625 16.2583 2.5625 16C2.5625 15.7417 2.65417 15.5208 2.8375 15.3375C3.02083 15.1542 3.24167 15.0625 3.5 15.0625H5.5C5.75833 15.0625 5.97917 15.1542 6.1625 15.3375C6.34583 15.5208 6.4375 15.7417 6.4375 16C6.4375 16.2583 6.34583 16.4792 6.1625 16.6625C5.97917 16.8458 5.75833 16.9375 5.5 16.9375H3.5Z" fill="white"/>
</g>
</svg>
