<svg width="25" height="24" viewBox="0 0 25 24" fill="none" xmlns="http://www.w3.org/2000/svg">
<mask id="mask0_233_286" style="mask-type:alpha" maskUnits="userSpaceOnUse" x="0" y="0" width="25" height="24">
<rect x="0.5" width="24" height="24" fill="#D9D9D9"/>
</mask>
<g mask="url(#mask0_233_286)">
<path d="M15.3233 12.25L7.79059 4.71728C7.59188 4.51856 7.49508 4.28203 7.50019 4.00768C7.50533 3.73331 7.60725 3.49678 7.80597 3.29808C8.00468 3.09936 8.24122 3 8.51557 3C8.78992 3 9.02645 3.09936 9.22517 3.29808L16.8809 10.9692C17.0617 11.15 17.1957 11.3526 17.2829 11.5769C17.37 11.8013 17.4136 12.0256 17.4136 12.25C17.4136 12.4743 17.37 12.6987 17.2829 12.9231C17.1957 13.1474 17.0617 13.35 16.8809 13.5307L9.20979 21.2019C9.01108 21.4006 8.7771 21.4974 8.50787 21.4923C8.23865 21.4871 8.00468 21.3852 7.80597 21.1865C7.60725 20.9878 7.50789 20.7513 7.50789 20.4769C7.50789 20.2026 7.60725 19.966 7.80597 19.7673L15.3233 12.25Z" fill="#091424"/>
</g>
</svg>
