<svg width="50" height="50" viewBox="0 0 50 50" fill="none" xmlns="http://www.w3.org/2000/svg">
<mask id="mask0_260_10" style="mask-type:alpha" maskUnits="userSpaceOnUse" x="0" y="0" width="50" height="50">
<rect x="0.793213" y="0.793213" width="48.4137" height="48.4137" fill="#D9D9D9"/>
</mask>
<g mask="url(#mask0_260_10)">
<path d="M25.0001 43.1552C22.5122 43.1552 20.1671 42.6762 17.965 41.718C15.7628 40.7598 13.8381 39.457 12.1906 37.8096C10.5432 36.1622 9.24044 34.2374 8.28225 32.0352C7.32406 29.8331 6.84497 27.488 6.84497 25.0001C6.84497 22.3777 7.34928 19.9234 8.3579 17.6372C9.36652 15.351 10.7786 13.3842 12.5941 11.7368C13.0312 11.3669 13.5187 11.1904 14.0566 11.2072C14.5945 11.2241 15.0484 11.4174 15.4182 11.7872L26.4122 22.7811C26.782 23.151 26.9669 23.6217 26.9669 24.1932C26.9669 24.7648 26.782 25.2355 26.4122 25.6053C26.0423 25.9751 25.5717 26.16 25.0001 26.16C24.4286 26.16 23.9579 25.9751 23.588 25.6053L14.107 16.1243C13.0984 17.3346 12.3083 18.6878 11.7368 20.184C11.1652 21.6801 10.8794 23.2855 10.8794 25.0001C10.8794 28.9001 12.2579 32.2285 15.0148 34.9854C17.7717 37.7423 21.1001 39.1208 25.0001 39.1208C28.9001 39.1208 32.2285 37.7423 34.9854 34.9854C37.7423 32.2285 39.1208 28.9001 39.1208 25.0001C39.1208 21.4027 37.9693 18.3012 35.6663 15.6956C33.3632 13.09 30.4803 11.5519 27.0173 11.0812V12.8967C27.0173 13.4682 26.824 13.9473 26.4374 14.334C26.0508 14.7206 25.5717 14.9139 25.0001 14.9139C24.4286 14.9139 23.9495 14.7206 23.5628 14.334C23.1762 13.9473 22.9829 13.4682 22.9829 12.8967V8.86221C22.9829 8.29066 23.1762 7.81156 23.5628 7.42493C23.9495 7.03829 24.4286 6.84497 25.0001 6.84497C27.488 6.84497 29.8331 7.32406 32.0352 8.28225C34.2374 9.24044 36.1622 10.5432 37.8096 12.1906C39.457 13.8381 40.7598 15.7628 41.718 17.965C42.6762 20.1671 43.1552 22.5122 43.1552 25.0001C43.1552 27.488 42.6762 29.8331 41.718 32.0352C40.7598 34.2374 39.457 36.1622 37.8096 37.8096C36.1622 39.457 34.2374 40.7598 32.0352 41.718C29.8331 42.6762 27.488 43.1552 25.0001 43.1552ZM25.0001 37.1035C24.4286 37.1035 23.9495 36.9102 23.5628 36.5236C23.1762 36.1369 22.9829 35.6578 22.9829 35.0863C22.9829 34.5147 23.1762 34.0357 23.5628 33.649C23.9495 33.2624 24.4286 33.0691 25.0001 33.0691C25.5717 33.0691 26.0508 33.2624 26.4374 33.649C26.824 34.0357 27.0173 34.5147 27.0173 35.0863C27.0173 35.6578 26.824 36.1369 26.4374 36.5236C26.0508 36.9102 25.5717 37.1035 25.0001 37.1035ZM35.0863 27.0173C34.5147 27.0173 34.0357 26.824 33.649 26.4374C33.2624 26.0508 33.0691 25.5717 33.0691 25.0001C33.0691 24.4286 33.2624 23.9495 33.649 23.5628C34.0357 23.1762 34.5147 22.9829 35.0863 22.9829C35.6578 22.9829 36.1369 23.1762 36.5236 23.5628C36.9102 23.9495 37.1035 24.4286 37.1035 25.0001C37.1035 25.5717 36.9102 26.0508 36.5236 26.4374C36.1369 26.824 35.6578 27.0173 35.0863 27.0173ZM14.9139 27.0173C14.3424 27.0173 13.8633 26.824 13.4766 26.4374C13.09 26.0508 12.8967 25.5717 12.8967 25.0001C12.8967 24.4286 13.09 23.9495 13.4766 23.5628C13.8633 23.1762 14.3424 22.9829 14.9139 22.9829C15.4855 22.9829 15.9646 23.1762 16.3512 23.5628C16.7378 23.9495 16.9312 24.4286 16.9312 25.0001C16.9312 25.5717 16.7378 26.0508 16.3512 26.4374C15.9646 26.824 15.4855 27.0173 14.9139 27.0173Z" fill="white"/>
</g>
</svg>
