<svg width="50" height="49" viewBox="0 0 50 49" fill="none" xmlns="http://www.w3.org/2000/svg">
<mask id="mask0_260_41" style="mask-type:alpha" maskUnits="userSpaceOnUse" x="0" y="0" width="50" height="49">
<rect x="0.793213" y="0.126465" width="48.4137" height="48.4137" fill="#D9D9D9"/>
</mask>
<g mask="url(#mask0_260_41)">
<path d="M41.0371 42.4885C36.8346 42.4885 32.6824 41.5723 28.5807 39.74C24.479 37.9077 20.7471 35.3105 17.385 31.9484C14.023 28.5864 11.4258 24.8545 9.59346 20.7528C7.76113 16.651 6.84497 12.4989 6.84497 8.29632C6.84497 7.69115 7.04669 7.18684 7.45014 6.78339C7.85359 6.37995 8.3579 6.17822 8.96307 6.17822H17.1329C17.6036 6.17822 18.0238 6.33792 18.3937 6.65732C18.7635 6.97671 18.982 7.35494 19.0493 7.79201L20.3605 14.8523C20.4277 15.3903 20.4109 15.8442 20.31 16.214C20.2092 16.5838 20.0243 16.9032 19.7553 17.1722L14.8635 22.1144C15.5359 23.3584 16.3344 24.5603 17.259 25.7202C18.1835 26.8801 19.2006 27.998 20.31 29.0739C21.3523 30.1161 22.4449 31.0827 23.588 31.9736C24.7311 32.8646 25.9415 33.6799 27.2191 34.4195L31.9596 29.679C32.2622 29.3765 32.6572 29.1495 33.1447 28.9982C33.6322 28.8469 34.1113 28.8049 34.582 28.8721L41.5415 30.2842C42.0121 30.4187 42.3988 30.6624 42.7014 31.0155C43.004 31.3685 43.1552 31.7635 43.1552 32.2006V40.3704C43.1552 40.9756 42.9535 41.4799 42.5501 41.8833C42.1466 42.2868 41.6423 42.4885 41.0371 42.4885Z" fill="white"/>
</g>
</svg>
