<svg width="50" height="49" viewBox="0 0 50 49" fill="none" xmlns="http://www.w3.org/2000/svg">
<mask id="mask0_260_6" style="mask-type:alpha" maskUnits="userSpaceOnUse" x="0" y="0" width="50" height="49">
<rect x="0.793213" y="0.459717" width="48.4137" height="48.4137" fill="#D9D9D9"/>
</mask>
<g mask="url(#mask0_260_6)">
<path d="M11.4847 10.546C10.7451 10.546 10.1483 10.235 9.69445 9.61303C9.24057 8.99105 9.21535 8.32704 9.6188 7.62101C10.1567 6.67963 10.888 5.92316 11.8125 5.35161C12.7371 4.78006 13.7709 4.49429 14.914 4.49429C15.2839 4.49429 15.6369 4.41024 15.9731 4.24213C16.3093 4.07403 16.5615 3.80507 16.7296 3.43524C16.8977 3.13265 17.1246 2.89731 17.4104 2.72921C17.6962 2.5611 18.024 2.47705 18.3938 2.47705C19.1671 2.47705 19.7554 2.79645 20.1589 3.43524C20.5623 4.07403 20.5791 4.72963 20.2093 5.40204C19.6714 6.34342 18.9401 7.09989 18.0156 7.67144C17.091 8.24299 16.0571 8.52876 14.914 8.52876C14.5442 8.52876 14.1912 8.62122 13.855 8.80613C13.5188 8.99105 13.2666 9.25161 13.0985 9.58781C12.9304 9.92402 12.6951 10.1678 12.3925 10.3191C12.0899 10.4704 11.7873 10.546 11.4847 10.546ZM10.8796 42.8218C10.308 42.8218 9.82893 42.6285 9.44229 42.2418C9.05565 41.8552 8.86234 41.3761 8.86234 40.8046V23.9102L6.8451 25.4736C6.37441 25.8098 5.8701 25.9442 5.33217 25.877C4.79424 25.8098 4.35717 25.5408 4.02097 25.0701C3.68476 24.5994 3.55028 24.0951 3.61752 23.5572C3.68476 23.0192 3.93691 22.5822 4.37398 22.246L8.86234 18.8167V14.5805C8.86234 14.0089 9.05565 13.5298 9.44229 13.1432C9.82893 12.7566 10.308 12.5632 10.8796 12.5632C11.4511 12.5632 11.9302 12.7566 12.3169 13.1432C12.7035 13.5298 12.8968 14.0089 12.8968 14.5805V15.7404L23.7899 7.46971C23.958 7.33523 24.1429 7.22596 24.3446 7.14191C24.5464 7.05786 24.7649 7.01583 25.0002 7.01583C25.2356 7.01583 25.4541 7.05786 25.6558 7.14191C25.8576 7.22596 26.0425 7.33523 26.2106 7.46971L45.6265 22.246C46.0636 22.5822 46.3157 23.0192 46.383 23.5572C46.4502 24.0951 46.3157 24.5994 45.9795 25.0701C45.6433 25.5072 45.2062 25.7593 44.6683 25.8266C44.1304 25.8938 43.6429 25.7593 43.2058 25.4231L41.1381 23.9102V40.8046C41.1381 41.3761 40.9448 41.8552 40.5582 42.2418C40.1715 42.6285 39.6924 42.8218 39.1209 42.8218H27.0175V32.7356C27.0175 32.1641 26.8242 31.685 26.4375 31.2983C26.0509 30.9117 25.5718 30.7184 25.0002 30.7184C24.4287 30.7184 23.9496 30.9117 23.563 31.2983C23.1763 31.685 22.983 32.1641 22.983 32.7356V42.8218H10.8796Z" fill="white"/>
</g>
</svg>
