<svg width="50" height="49" viewBox="0 0 50 49" fill="none" xmlns="http://www.w3.org/2000/svg">
<mask id="mask0_260_62" style="mask-type:alpha" maskUnits="userSpaceOnUse" x="0" y="0" width="50" height="49">
<rect x="0.793213" y="0.126465" width="48.4137" height="48.4137" fill="#D9D9D9"/>
</mask>
<g mask="url(#mask0_260_62)">
<path d="M8.86211 38.454C7.75263 38.454 6.80285 38.059 6.01276 37.2689C5.22268 36.4788 4.82764 35.529 4.82764 34.4195V21.9631C4.82764 21.4252 4.9285 20.9124 5.13022 20.4249C5.33195 19.9374 5.61772 19.5088 5.98755 19.1389L11.7367 13.3898C12.1065 13.02 12.5352 12.7342 13.0227 12.5325C13.5102 12.3308 14.0229 12.2299 14.5608 12.2299H14.9138V10.2127C14.9138 9.64112 15.1071 9.16203 15.4938 8.77539C15.8804 8.38875 16.3595 8.19543 16.9311 8.19543C17.5026 8.19543 17.9817 8.38875 18.3683 8.77539C18.755 9.16203 18.9483 9.64112 18.9483 10.2127V12.2299H35.4392C35.9771 12.2299 36.4899 12.3308 36.9774 12.5325C37.4649 12.7342 37.8935 13.02 38.2633 13.3898L44.0125 19.1389C44.3823 19.5088 44.6681 19.9374 44.8698 20.4249C45.0715 20.9124 45.1724 21.4252 45.1724 21.9631V34.4195C45.1724 35.529 44.7773 36.4788 43.9873 37.2689C43.1972 38.059 42.2474 38.454 41.1379 38.454H8.86211ZM33.069 34.4195H41.1379V21.9631L37.1034 17.9286L33.069 21.9631V34.4195ZM8.86211 34.4195H29.0345V24.3333H8.86211V34.4195Z" fill="white"/>
</g>
</svg>
