<svg width="59" height="44" viewBox="0 0 59 44" fill="none" xmlns="http://www.w3.org/2000/svg">
<path d="M26.1307 18.6364H18.9205C18.8693 18.0398 18.733 17.4986 18.5114 17.0128C18.2983 16.527 18 16.1094 17.6165 15.7599C17.2415 15.402 16.7855 15.1293 16.2486 14.9418C15.7116 14.7457 15.1023 14.6477 14.4205 14.6477C13.2273 14.6477 12.2173 14.9375 11.3906 15.517C10.5724 16.0966 9.95028 16.9276 9.52415 18.0099C9.10653 19.0923 8.89773 20.392 8.89773 21.9091C8.89773 23.5114 9.1108 24.8537 9.53693 25.9361C9.97159 27.0099 10.598 27.8196 11.4162 28.3651C12.2344 28.902 13.2188 29.1705 14.3693 29.1705C15.0256 29.1705 15.6136 29.0895 16.1335 28.9276C16.6534 28.7571 17.1051 28.5142 17.4886 28.1989C17.8722 27.8835 18.1832 27.5043 18.4219 27.0611C18.669 26.6094 18.8352 26.1023 18.9205 25.5398L26.1307 25.5909C26.0455 26.6989 25.7344 27.8281 25.1974 28.9787C24.6605 30.1207 23.8977 31.1776 22.9091 32.1491C21.929 33.1122 20.7145 33.8878 19.2656 34.4759C17.8168 35.0639 16.1335 35.358 14.2159 35.358C11.8125 35.358 9.65625 34.8423 7.74716 33.8111C5.84659 32.7798 4.34233 31.2628 3.23438 29.2599C2.13494 27.2571 1.58523 24.8068 1.58523 21.9091C1.58523 18.9943 2.14773 16.5398 3.27273 14.5455C4.39773 12.5426 5.91477 11.0298 7.82386 10.0071C9.73295 8.97585 11.8636 8.46023 14.2159 8.46023C15.8693 8.46023 17.3906 8.68608 18.7798 9.13778C20.169 9.58949 21.3878 10.25 22.4361 11.1193C23.4844 11.9801 24.3281 13.0412 24.9673 14.3026C25.6065 15.5639 25.9943 17.0085 26.1307 18.6364Z" fill="white"/>
<path d="M21.6875 35V8.81818H40.0966V14.5455H28.7955V19.0455H38.9716V24.7727H28.7955V35H21.6875Z" fill="#231F20"/>
<g filter="url(#filter0_d_347_234)">
<path d="M49.8011 17C49.733 16.1477 49.4134 15.483 48.8423 15.0057C48.2798 14.5284 47.4233 14.2898 46.2727 14.2898C45.5398 14.2898 44.9389 14.3793 44.4702 14.5582C44.0099 14.7287 43.669 14.9631 43.4474 15.2614C43.2259 15.5597 43.1108 15.9006 43.1023 16.2841C43.0852 16.5994 43.1406 16.8849 43.2685 17.1406C43.4048 17.3878 43.6179 17.6136 43.9077 17.8182C44.1974 18.0142 44.5682 18.1932 45.0199 18.3551C45.4716 18.517 46.0085 18.6619 46.6307 18.7898L48.7784 19.25C50.2273 19.5568 51.4673 19.9616 52.4986 20.4645C53.5298 20.9673 54.3736 21.5597 55.0298 22.2415C55.6861 22.9148 56.1676 23.6733 56.4744 24.517C56.7898 25.3608 56.9517 26.2812 56.9602 27.2784C56.9517 29 56.5213 30.4574 55.669 31.6506C54.8168 32.8438 53.598 33.7514 52.0128 34.3736C50.4361 34.9957 48.5398 35.3068 46.3239 35.3068C44.0483 35.3068 42.0625 34.9702 40.3665 34.2969C38.679 33.6236 37.3665 32.5881 36.429 31.1903C35.5 29.7841 35.0313 27.9858 35.0227 25.7955H41.7727C41.8153 26.5966 42.0156 27.2699 42.3736 27.8153C42.7315 28.3608 43.2344 28.7741 43.8821 29.0554C44.5384 29.3366 45.3182 29.4773 46.2216 29.4773C46.9801 29.4773 47.6151 29.3835 48.1264 29.196C48.6378 29.0085 49.0256 28.7486 49.2898 28.4162C49.554 28.0838 49.6903 27.7045 49.6989 27.2784C49.6903 26.8778 49.5582 26.5284 49.3026 26.2301C49.0554 25.9233 48.6463 25.6506 48.0753 25.4119C47.5043 25.1648 46.733 24.9347 45.7614 24.7216L43.1534 24.1591C40.8352 23.6562 39.0071 22.8168 37.669 21.6406C36.3395 20.456 35.679 18.8409 35.6875 16.7955C35.679 15.1335 36.1222 13.6804 37.017 12.4361C37.9205 11.1832 39.169 10.2074 40.7628 9.50852C42.3651 8.80966 44.2017 8.46023 46.2727 8.46023C48.3864 8.46023 50.2145 8.81392 51.7571 9.52131C53.2997 10.2287 54.4886 11.2259 55.3239 12.5128C56.1676 13.7912 56.5938 15.2869 56.6023 17H49.8011Z" fill="white"/>
</g>
<defs>
<filter id="filter0_d_347_234" x="29.0229" y="4.46021" width="29.9375" height="34.8467" filterUnits="userSpaceOnUse" color-interpolation-filters="sRGB">
<feFlood flood-opacity="0" result="BackgroundImageFix"/>
<feColorMatrix in="SourceAlpha" type="matrix" values="0 0 0 0 0 0 0 0 0 0 0 0 0 0 0 0 0 0 127 0" result="hardAlpha"/>
<feOffset dx="-2"/>
<feGaussianBlur stdDeviation="2"/>
<feComposite in2="hardAlpha" operator="out"/>
<feColorMatrix type="matrix" values="0 0 0 0 0.0625695 0 0 0 0 0.125875 0 0 0 0 0.220833 0 0 0 0.4 0"/>
<feBlend mode="normal" in2="BackgroundImageFix" result="effect1_dropShadow_347_234"/>
<feBlend mode="normal" in="SourceGraphic" in2="effect1_dropShadow_347_234" result="shape"/>
</filter>
</defs>
</svg>
