<svg width="64" height="64" viewBox="0 0 64 64" fill="none" xmlns="http://www.w3.org/2000/svg">
<mask id="mask0_148_404" style="mask-type:alpha" maskUnits="userSpaceOnUse" x="0" y="0" width="64" height="64">
<rect width="64" height="64" fill="#D9D9D9"/>
</mask>
<g mask="url(#mask0_148_404)">
<path d="M59.1337 28.0667C59.6225 28.6 59.867 29.2333 59.867 29.9667C59.867 30.7 59.6225 31.3333 59.1337 31.8667L49.667 41.2667C49.1781 41.8 48.5559 42.0667 47.8003 42.0667C47.0448 42.0667 46.4225 41.8 45.9337 41.2667L42.1337 37.5333C41.6003 37 41.3337 36.3667 41.3337 35.6333C41.3337 34.9 41.6003 34.2667 42.1337 33.7333C42.667 33.2444 43.3003 33 44.0337 33C44.767 33 45.4003 33.2444 45.9337 33.7333L47.8003 35.6L55.3337 28.0667C55.867 27.5778 56.5003 27.3333 57.2337 27.3333C57.967 27.3333 58.6003 27.5778 59.1337 28.0667ZM27.5337 54.4667L20.867 48.4C17.667 45.5111 14.9225 42.9333 12.6337 40.6667C10.3448 38.4 8.45588 36.2667 6.96699 34.2667C5.4781 32.2667 4.38921 30.3333 3.70033 28.4667C3.01144 26.6 2.66699 24.6444 2.66699 22.6C2.66699 18.4222 4.06699 14.9444 6.86699 12.1667C9.66699 9.38889 13.1559 8 17.3337 8C19.6448 8 21.8448 8.47778 23.9337 9.43333C26.0225 10.3889 27.8225 11.7556 29.3337 13.5333C30.8448 11.7556 32.6448 10.3889 34.7337 9.43333C36.8225 8.47778 39.0225 8 41.3337 8C45.1114 8 48.2781 9.14444 50.8337 11.4333C53.3892 13.7222 54.9781 16.4 55.6003 19.4667C54.7114 19.1111 53.7781 18.8889 52.8003 18.8C51.8225 18.7111 50.8225 18.6667 49.8003 18.6667C46.0225 18.6667 42.5559 20.1889 39.4003 23.2333C36.2448 26.2778 34.667 30.0889 34.667 34.6667C34.667 36.8 35.1337 38.9667 36.067 41.1667C37.0003 43.3667 38.3114 45.1556 40.0003 46.5333C39.1559 47.2889 38.0559 48.2556 36.7003 49.4333C35.3448 50.6111 34.1781 51.6444 33.2003 52.5333L31.067 54.4667C30.5781 54.9111 29.9892 55.1333 29.3003 55.1333C28.6114 55.1333 28.0225 54.9111 27.5337 54.4667Z" fill="#091424"/>
</g>
</svg>
