<svg width="64" height="64" viewBox="0 0 64 64" fill="none" xmlns="http://www.w3.org/2000/svg">
<mask id="mask0_39_1571" style="mask-type:alpha" maskUnits="userSpaceOnUse" x="0" y="0" width="64" height="64">
<rect width="64" height="64" fill="#D9D9D9"/>
</mask>
<g mask="url(#mask0_39_1571)">
<path d="M16.1333 56.1333C15.6445 56.5333 15.1222 56.5555 14.5667 56.2C14.0111 55.8444 13.8445 55.3555 14.0667 54.7333L19.0667 38.4L6.06668 29.0666C5.53335 28.7111 5.36668 28.2222 5.56668 27.6C5.76668 26.9778 6.17779 26.6666 6.80001 26.6666H22.9333L28.0667 9.59998C28.1556 9.24442 28.3222 8.99998 28.5667 8.86664C28.8111 8.73331 29.0667 8.66664 29.3333 8.66664C29.6 8.66664 29.8556 8.73331 30.1 8.86664C30.3445 8.99998 30.5111 9.24442 30.6 9.59998L35.7333 26.6666H51.8667C52.4889 26.6666 52.9 26.9778 53.1 27.6C53.3 28.2222 53.1333 28.7111 52.6 29.0666L39.6 38.4L44.6 54.7333C44.8222 55.3555 44.6556 55.8444 44.1 56.2C43.5445 56.5555 43.0222 56.5333 42.5333 56.1333L29.3333 46.1333L16.1333 56.1333ZM53.6 56.1333L49.6667 53.1333L45.7333 40.5333L54 34.6666H59C59.6222 34.6666 60.0445 34.9778 60.2667 35.6C60.4889 36.2222 60.3333 36.7111 59.8 37.0666L52 42.6666L55.7333 54.6666C55.9556 55.2889 55.7778 55.7889 55.2 56.1666C54.6222 56.5444 54.0889 56.5333 53.6 56.1333ZM39.7333 21.3333L37.7333 14.5333L39.2 9.59998C39.2889 9.24442 39.4556 8.98886 39.7 8.83331C39.9445 8.67775 40.2 8.59998 40.4667 8.59998C40.7333 8.59998 40.9889 8.68886 41.2333 8.86664C41.4778 9.04442 41.6445 9.28886 41.7333 9.59998L45.3333 21.3333H39.7333Z" fill="white"/>
</g>
</svg>
