<svg width="50" height="50" viewBox="0 0 50 50" fill="none" xmlns="http://www.w3.org/2000/svg">
<mask id="mask0_260_32" style="mask-type:alpha" maskUnits="userSpaceOnUse" x="0" y="0" width="50" height="50">
<rect x="0.793213" y="0.793213" width="48.4137" height="48.4137" fill="#D9D9D9"/>
</mask>
<g mask="url(#mask0_260_32)">
<path d="M14.914 31.0517C16.595 31.0517 18.0239 30.4634 19.2006 29.2867C20.3773 28.1099 20.9657 26.6811 20.9657 25C20.9657 23.319 20.3773 21.8901 19.2006 20.7134C18.0239 19.5367 16.595 18.9483 14.914 18.9483C13.2329 18.9483 11.8041 19.5367 10.6273 20.7134C9.45062 21.8901 8.86226 23.319 8.86226 25C8.86226 26.6811 9.45062 28.1099 10.6273 29.2867C11.8041 30.4634 13.2329 31.0517 14.914 31.0517ZM14.914 37.1035C11.5519 37.1035 8.69416 35.9267 6.34071 33.5733C3.98727 31.2198 2.81055 28.3621 2.81055 25C2.81055 21.638 3.98727 18.7802 6.34071 16.4268C8.69416 14.0733 11.5519 12.8966 14.914 12.8966C17.6372 12.8966 20.0159 13.6699 22.0499 15.2164C24.084 16.763 25.5045 18.6794 26.3114 20.9656H42.3484C42.6174 20.9656 42.8779 21.016 43.1301 21.1168C43.3822 21.2177 43.5924 21.3522 43.7605 21.5203L45.7273 23.4871C45.929 23.6888 46.0803 23.9158 46.1811 24.1679C46.282 24.4201 46.3324 24.6806 46.3324 24.9496C46.3324 25.2186 46.2904 25.4707 46.2064 25.7061C46.1223 25.9414 45.9794 26.1599 45.7777 26.3617L40.5329 31.6065C40.3312 31.8082 40.1126 31.9595 39.8773 32.0604C39.6419 32.1612 39.3898 32.2117 39.1208 32.2117C38.8519 32.2117 38.5997 32.1696 38.3644 32.0856C38.129 32.0015 37.9105 31.8586 37.7088 31.6569L35.0863 29.0345L32.4639 31.6569C32.2622 31.8586 32.0437 32.0015 31.8083 32.0856C31.573 32.1696 31.3208 32.2117 31.0519 32.2117C30.7829 32.2117 30.5307 32.1696 30.2954 32.0856C30.0601 32.0015 29.8415 31.8586 29.6398 31.6569L27.0174 29.0345H26.3114C25.4708 31.4552 24.0083 33.4052 21.9239 34.8845C19.8394 36.3638 17.5028 37.1035 14.914 37.1035Z" fill="white"/>
</g>
</svg>
