<svg width="123" height="97" viewBox="0 0 123 97" fill="none" xmlns="http://www.w3.org/2000/svg">
<path d="M58.0682 41.6364H42.0455C41.9318 40.3106 41.6288 39.108 41.1364 38.0284C40.6629 36.9489 40 36.0208 39.1477 35.2443C38.3144 34.4489 37.3011 33.8428 36.108 33.4261C34.9148 32.9905 33.5606 32.7727 32.0455 32.7727C29.3939 32.7727 27.1496 33.4167 25.3125 34.7045C23.4943 35.9924 22.1117 37.839 21.1648 40.2443C20.2367 42.6496 19.7727 45.5379 19.7727 48.9091C19.7727 52.4697 20.2462 55.4527 21.1932 57.858C22.1591 60.2443 23.5511 62.0436 25.3693 63.2557C27.1875 64.4489 29.375 65.0455 31.9318 65.0455C33.3902 65.0455 34.697 64.8655 35.8523 64.5057C37.0076 64.1269 38.0114 63.5871 38.8636 62.8864C39.7159 62.1856 40.4072 61.3428 40.9375 60.358C41.4867 59.3542 41.8561 58.2273 42.0455 56.9773L58.0682 57.0909C57.8788 59.553 57.1875 62.0625 55.9943 64.6193C54.8011 67.1572 53.1061 69.5057 50.9091 71.6648C48.7311 73.8049 46.0322 75.5284 42.8125 76.8352C39.5928 78.142 35.8523 78.7955 31.5909 78.7955C26.25 78.7955 21.4583 77.6496 17.2159 75.358C12.9924 73.0663 9.64962 69.6951 7.1875 65.2443C4.74432 60.7936 3.52273 55.3485 3.52273 48.9091C3.52273 42.4318 4.77273 36.9773 7.27273 32.5455C9.77273 28.0947 13.1439 24.733 17.3864 22.4602C21.6288 20.1686 26.3636 19.0227 31.5909 19.0227C35.2652 19.0227 38.6458 19.5246 41.733 20.5284C44.8201 21.5322 47.5284 23 49.858 24.9318C52.1875 26.8447 54.0625 29.2027 55.483 32.0057C56.9034 34.8087 57.7652 38.0189 58.0682 41.6364Z" fill="white"/>
<path d="M45.75 78V19.8182H86.6591V32.5455H61.5455V42.5455H84.1591V55.2727H61.5455V78H45.75Z" fill="#231F20"/>
<g filter="url(#filter0_d_7_494)">
<path d="M104.114 38C103.962 36.1061 103.252 34.6288 101.983 33.5682C100.733 32.5076 98.8295 31.9773 96.2727 31.9773C94.6439 31.9773 93.3087 32.1761 92.267 32.5739C91.2443 32.9527 90.4867 33.4735 89.9943 34.1364C89.5019 34.7992 89.2462 35.5568 89.2273 36.4091C89.1894 37.1098 89.3125 37.7443 89.5966 38.3125C89.8996 38.8617 90.3731 39.3636 91.017 39.8182C91.661 40.2538 92.4848 40.6515 93.4886 41.0114C94.4924 41.3712 95.6856 41.6932 97.0682 41.9773L101.841 43C105.061 43.6818 107.816 44.5814 110.108 45.6989C112.4 46.8163 114.275 48.1326 115.733 49.6477C117.191 51.1439 118.261 52.8295 118.943 54.7045C119.644 56.5795 120.004 58.625 120.023 60.8409C120.004 64.6667 119.047 67.9053 117.153 70.5568C115.259 73.2083 112.551 75.2254 109.028 76.608C105.525 77.9905 101.311 78.6818 96.3864 78.6818C91.3295 78.6818 86.9167 77.9337 83.1477 76.4375C79.3977 74.9413 76.4811 72.6402 74.3977 69.5341C72.3333 66.4091 71.2917 62.4129 71.2727 57.5455H86.2727C86.3674 59.3258 86.8125 60.822 87.608 62.0341C88.4034 63.2462 89.5208 64.1648 90.9602 64.7898C92.4186 65.4148 94.1515 65.7273 96.1591 65.7273C97.8447 65.7273 99.2557 65.5189 100.392 65.1023C101.528 64.6856 102.39 64.108 102.977 63.3693C103.564 62.6307 103.867 61.7879 103.886 60.8409C103.867 59.9508 103.574 59.1742 103.006 58.5114C102.456 57.8295 101.547 57.2235 100.278 56.6932C99.0095 56.1439 97.2955 55.6326 95.1364 55.1591L89.3409 53.9091C84.1894 52.7917 80.1269 50.9261 77.1534 48.3125C74.1989 45.6799 72.7311 42.0909 72.75 37.5455C72.7311 33.8523 73.7159 30.6231 75.7045 27.858C77.7121 25.0739 80.4867 22.9053 84.0284 21.3523C87.589 19.7992 91.6705 19.0227 96.2727 19.0227C100.97 19.0227 105.032 19.8087 108.46 21.3807C111.888 22.9527 114.53 25.1686 116.386 28.0284C118.261 30.8693 119.208 34.1932 119.227 38H104.114Z" fill="white"/>
</g>
<defs>
<filter id="filter0_d_7_494" x="65.2725" y="15.0227" width="56.75" height="67.6591" filterUnits="userSpaceOnUse" color-interpolation-filters="sRGB">
<feFlood flood-opacity="0" result="BackgroundImageFix"/>
<feColorMatrix in="SourceAlpha" type="matrix" values="0 0 0 0 0 0 0 0 0 0 0 0 0 0 0 0 0 0 127 0" result="hardAlpha"/>
<feOffset dx="-2"/>
<feGaussianBlur stdDeviation="2"/>
<feComposite in2="hardAlpha" operator="out"/>
<feColorMatrix type="matrix" values="0 0 0 0 0.0625695 0 0 0 0 0.125875 0 0 0 0 0.220833 0 0 0 0.4 0"/>
<feBlend mode="normal" in2="BackgroundImageFix" result="effect1_dropShadow_7_494"/>
<feBlend mode="normal" in="SourceGraphic" in2="effect1_dropShadow_7_494" result="shape"/>
</filter>
</defs>
</svg>
