<svg width="25" height="24" viewBox="0 0 25 24" fill="none" xmlns="http://www.w3.org/2000/svg">
<mask id="mask0_148_258" style="mask-type:alpha" maskUnits="userSpaceOnUse" x="0" y="0" width="25" height="24">
<rect x="0.5" width="24" height="24" fill="#D9D9D9"/>
</mask>
<g mask="url(#mask0_148_258)">
<path d="M22.2123 16.75C21.954 16.75 21.7331 16.6583 21.5498 16.475C21.3665 16.2916 21.2748 16.0708 21.2748 15.8125V10.05L13.4123 14.325C13.2706 14.4083 13.1248 14.4687 12.9748 14.5062C12.8248 14.5437 12.6665 14.5625 12.4998 14.5625C12.3331 14.5625 12.1748 14.5437 12.0248 14.5062C11.8748 14.4687 11.729 14.4083 11.5873 14.325L3.3373 9.82498C3.1873 9.74164 3.07064 9.62757 2.9873 9.48275C2.90397 9.33793 2.8623 9.18168 2.8623 9.014C2.8623 8.84632 2.90397 8.68956 2.9873 8.54373C3.07064 8.39789 3.1873 8.28331 3.3373 8.19998L11.6123 3.69998C11.7529 3.62498 11.8975 3.56873 12.0459 3.53123C12.1943 3.49373 12.3467 3.47498 12.5029 3.47498C12.6592 3.47498 12.8102 3.49164 12.9561 3.52498C13.1019 3.55831 13.2456 3.61664 13.3873 3.69998L22.6623 8.74998C22.8123 8.83331 22.9311 8.94581 23.0186 9.08748C23.1061 9.22914 23.1498 9.38941 23.1498 9.56828V15.8125C23.1498 16.0708 23.0581 16.2916 22.8748 16.475C22.6915 16.6583 22.4706 16.75 22.2123 16.75ZM12.4993 20.3625C12.3413 20.3625 12.1874 20.3437 12.0375 20.3062C11.8877 20.2687 11.7418 20.2125 11.5998 20.1375L6.6748 17.4625C6.36529 17.2908 6.1254 17.0605 5.95515 16.7717C5.78492 16.4829 5.6998 16.159 5.6998 15.8V12.0625L11.2998 15.1125C11.4915 15.2125 11.6873 15.3021 11.8873 15.3812C12.0873 15.4604 12.292 15.5 12.5013 15.5C12.7106 15.5 12.9162 15.4579 13.118 15.3737C13.3198 15.2895 13.5179 15.1982 13.7123 15.1L19.2998 12.0625V15.8C19.2998 16.159 19.2147 16.4829 19.0445 16.7717C18.8742 17.0605 18.6343 17.2908 18.3248 17.4625L13.3998 20.1375C13.2576 20.2125 13.1115 20.2687 12.9614 20.3062C12.8113 20.3437 12.6573 20.3625 12.4993 20.3625Z" fill="white"/>
</g>
</svg>
