<svg width="64" height="64" viewBox="0 0 64 64" fill="none" xmlns="http://www.w3.org/2000/svg">
<mask id="mask0_39_1562" style="mask-type:alpha" maskUnits="userSpaceOnUse" x="0" y="0" width="64" height="64">
<rect width="64" height="64" fill="#D9D9D9"/>
</mask>
<g mask="url(#mask0_39_1562)">
<path d="M2.66675 53.3334V34.6667C2.66675 33.2 3.18897 31.9445 4.23341 30.9C5.27786 29.8556 6.53341 29.3334 8.00008 29.3334C9.46675 29.3334 10.7223 29.8556 11.7667 30.9C12.8112 31.9445 13.3334 33.2 13.3334 34.6667V53.3334C13.3334 54.8 12.8112 56.0556 11.7667 57.1C10.7223 58.1445 9.46675 58.6667 8.00008 58.6667C6.53341 58.6667 5.27786 58.1445 4.23341 57.1C3.18897 56.0556 2.66675 54.8 2.66675 53.3334ZM35.6667 58.2L18.6667 53.4V29.3334H22.9334C23.2445 29.3334 23.5556 29.3667 23.8667 29.4334C24.1779 29.5 24.489 29.5778 24.8001 29.6667L43.2668 36.5334C43.889 36.7556 44.389 37.1556 44.7668 37.7334C45.1445 38.3111 45.3334 38.9111 45.3334 39.5334C45.3334 40.4667 45.0112 41.2223 44.3667 41.8C43.7223 42.3778 42.9779 42.6667 42.1334 42.6667H35.1334C34.9112 42.6667 34.7445 42.6556 34.6334 42.6334C34.5223 42.6111 34.3779 42.5556 34.2001 42.4667L31.2001 41.3334C30.8445 41.2 30.489 41.2223 30.1334 41.4C29.7779 41.5778 29.5556 41.8223 29.4667 42.1334C29.3779 42.4889 29.4001 42.8223 29.5334 43.1334C29.6667 43.4445 29.9112 43.6667 30.2668 43.8L34.2001 45.2C34.289 45.2445 34.4223 45.2778 34.6001 45.3C34.7779 45.3223 34.9334 45.3334 35.0667 45.3334H53.3334C54.7556 45.3334 56.0001 45.8445 57.0667 46.8667C58.1334 47.8889 58.6667 49.1556 58.6667 50.6667L39.0001 58.0667C38.5556 58.2445 38.0112 58.3445 37.3667 58.3667C36.7223 58.3889 36.1556 58.3334 35.6667 58.2ZM42.6667 33.8C42.3556 33.8 42.0556 33.7556 41.7668 33.6667C41.4779 33.5778 41.2223 33.4223 41.0001 33.2C37.1779 29.7334 33.8334 26.3889 30.9667 23.1667C28.1001 19.9445 26.6667 16.9334 26.6667 14.1334C26.6667 11.6445 27.5112 9.5556 29.2001 7.86671C30.889 6.17782 32.9779 5.33337 35.4668 5.33337C36.889 5.33337 38.2223 5.63337 39.4668 6.23337C40.7112 6.83337 41.7779 7.64448 42.6667 8.66671C43.5556 7.64448 44.6223 6.83337 45.8668 6.23337C47.1112 5.63337 48.4445 5.33337 49.8668 5.33337C52.3556 5.33337 54.4445 6.17782 56.1334 7.86671C57.8223 9.5556 58.6667 11.6445 58.6667 14.1334C58.6667 16.9334 57.2334 19.9445 54.3668 23.1667C51.5001 26.3889 48.1556 29.7334 44.3334 33.2C44.1112 33.4223 43.8556 33.5778 43.5667 33.6667C43.2779 33.7556 42.9779 33.8 42.6667 33.8Z" fill="white"/>
</g>
</svg>
