<svg width="64" height="64" viewBox="0 0 64 64" fill="none" xmlns="http://www.w3.org/2000/svg">
<mask id="mask0_148_420" style="mask-type:alpha" maskUnits="userSpaceOnUse" x="0" y="0" width="64" height="64">
<rect width="64" height="64" fill="#D9D9D9"/>
</mask>
<g mask="url(#mask0_148_420)">
<path d="M2.66699 53.3333V34.6667C2.66699 33.2 3.18921 31.9444 4.23366 30.9C5.2781 29.8556 6.53366 29.3333 8.00033 29.3333C9.46699 29.3333 10.7225 29.8556 11.767 30.9C12.8114 31.9444 13.3337 33.2 13.3337 34.6667V53.3333C13.3337 54.8 12.8114 56.0556 11.767 57.1C10.7225 58.1444 9.46699 58.6667 8.00033 58.6667C6.53366 58.6667 5.2781 58.1444 4.23366 57.1C3.18921 56.0556 2.66699 54.8 2.66699 53.3333ZM35.667 58.2L18.667 53.4V29.3333H22.9337C23.2448 29.3333 23.5559 29.3667 23.867 29.4333C24.1781 29.5 24.4892 29.5778 24.8003 29.6667L43.267 36.5333C43.8892 36.7556 44.3892 37.1556 44.767 37.7333C45.1448 38.3111 45.3337 38.9111 45.3337 39.5333C45.3337 40.4667 45.0114 41.2222 44.367 41.8C43.7225 42.3778 42.9781 42.6667 42.1337 42.6667H35.1337C34.9114 42.6667 34.7448 42.6556 34.6337 42.6333C34.5225 42.6111 34.3781 42.5556 34.2003 42.4667L31.2003 41.3333C30.8448 41.2 30.4892 41.2222 30.1337 41.4C29.7781 41.5778 29.5559 41.8222 29.467 42.1333C29.3781 42.4889 29.4003 42.8222 29.5337 43.1333C29.667 43.4444 29.9114 43.6667 30.267 43.8L34.2003 45.2C34.2892 45.2444 34.4225 45.2778 34.6003 45.3C34.7781 45.3222 34.9337 45.3333 35.067 45.3333H53.3337C54.7559 45.3333 56.0003 45.8444 57.067 46.8667C58.1337 47.8889 58.667 49.1556 58.667 50.6667L39.0003 58.0667C38.5559 58.2444 38.0114 58.3444 37.367 58.3667C36.7225 58.3889 36.1559 58.3333 35.667 58.2ZM42.667 33.8C42.3559 33.8 42.0559 33.7556 41.767 33.6667C41.4781 33.5778 41.2225 33.4222 41.0003 33.2C37.1781 29.7333 33.8337 26.3889 30.967 23.1667C28.1003 19.9444 26.667 16.9333 26.667 14.1333C26.667 11.6444 27.5114 9.55556 29.2003 7.86667C30.8892 6.17778 32.9781 5.33334 35.467 5.33334C36.8892 5.33334 38.2225 5.63334 39.467 6.23334C40.7114 6.83334 41.7781 7.64445 42.667 8.66667C43.5559 7.64445 44.6226 6.83334 45.867 6.23334C47.1114 5.63334 48.4448 5.33334 49.867 5.33334C52.3559 5.33334 54.4448 6.17778 56.1337 7.86667C57.8226 9.55556 58.667 11.6444 58.667 14.1333C58.667 16.9333 57.2337 19.9444 54.367 23.1667C51.5003 26.3889 48.1559 29.7333 44.3337 33.2C44.1114 33.4222 43.8559 33.5778 43.567 33.6667C43.2781 33.7556 42.9781 33.8 42.667 33.8Z" fill="#091424"/>
</g>
</svg>
